<mxfile host="" modified="2020-06-16T21:59:42.095Z" agent="5.0 (Macintosh; Intel Mac OS X 10_15_5) AppleWebKit/537.36 (KHTML, like Gecko) Code/1.46.0 Chrome/78.0.3904.130 Electron/7.3.1 Safari/537.36" etag="TIQspg_exxkF_986hM0L" version="13.1.3">
    <diagram id="kEPYXezzI-eteoRro5Sk" name="Page-1">
        <mxGraphModel dx="1748" dy="1180" grid="1" gridSize="10" guides="1" tooltips="1" connect="1" arrows="1" fold="1" page="1" pageScale="1" pageWidth="850" pageHeight="1100" math="0" shadow="0">
            <root>
                <mxCell id="0"/>
                <mxCell id="1" parent="0"/>
                <mxCell id="5eSl7V-lfJAm6dB7IAey-62" value="&lt;font style=&quot;font-size: 16px;&quot;&gt;Token handling State Machine&lt;br style=&quot;font-size: 16px;&quot;&gt;&lt;/font&gt;" style="text;html=1;align=center;verticalAlign=middle;resizable=0;points=[];autosize=1;fontSize=16;fontStyle=1" parent="1" vertex="1">
                    <mxGeometry x="320" y="20" width="240" height="20" as="geometry"/>
                </mxCell>
                <mxCell id="5eSl7V-lfJAm6dB7IAey-69" value="&lt;font color=&quot;#000000&quot;&gt;fetchToken&lt;/font&gt;" style="rounded=0;orthogonalLoop=1;jettySize=auto;html=1;strokeColor=#000000;fontSize=11;fontColor=#0000FF;" parent="1" source="5eSl7V-lfJAm6dB7IAey-63" target="5eSl7V-lfJAm6dB7IAey-65" edge="1">
                    <mxGeometry relative="1" as="geometry"/>
                </mxCell>
                <mxCell id="5eSl7V-lfJAm6dB7IAey-63" value="&lt;font color=&quot;#000000&quot;&gt;EMPTY&lt;/font&gt;" style="ellipse;whiteSpace=wrap;html=1;strokeColor=#000000;fontSize=11;fontColor=#0000FF;fontStyle=0" parent="1" vertex="1">
                    <mxGeometry x="77" y="160" width="60" height="40" as="geometry"/>
                </mxCell>
                <mxCell id="iLJFpo5nZADd873f5mlO-2" value="validateToken" style="rounded=0;orthogonalLoop=1;jettySize=auto;html=1;entryX=0;entryY=1;entryDx=0;entryDy=0;" parent="1" target="5eSl7V-lfJAm6dB7IAey-65" edge="1">
                    <mxGeometry relative="1" as="geometry">
                        <mxPoint x="147" y="290" as="sourcePoint"/>
                    </mxGeometry>
                </mxCell>
                <mxCell id="iLJFpo5nZADd873f5mlO-29" value="" style="edgeStyle=none;rounded=0;orthogonalLoop=1;jettySize=auto;html=1;" parent="1" source="5eSl7V-lfJAm6dB7IAey-64" target="5eSl7V-lfJAm6dB7IAey-63" edge="1">
                    <mxGeometry relative="1" as="geometry"/>
                </mxCell>
                <mxCell id="5eSl7V-lfJAm6dB7IAey-64" value="&lt;font color=&quot;#000000&quot;&gt;READ FROM STORAGE&lt;/font&gt;" style="ellipse;whiteSpace=wrap;html=1;strokeColor=#000000;fontSize=11;fontColor=#0000FF;" parent="1" vertex="1">
                    <mxGeometry x="60" y="270" width="94" height="40" as="geometry"/>
                </mxCell>
                <mxCell id="iLJFpo5nZADd873f5mlO-1" value="200&lt;br&gt;(doReceiveToken)" style="rounded=0;orthogonalLoop=1;jettySize=auto;html=1;entryX=0;entryY=0;entryDx=0;entryDy=0;elbow=vertical;exitX=0.5;exitY=0;exitDx=0;exitDy=0;" parent="1" source="5eSl7V-lfJAm6dB7IAey-65" target="5eSl7V-lfJAm6dB7IAey-66" edge="1">
                    <mxGeometry x="0.5172" relative="1" as="geometry">
                        <mxPoint x="390" y="180" as="targetPoint"/>
                        <Array as="points">
                            <mxPoint x="274" y="96"/>
                        </Array>
                        <mxPoint as="offset"/>
                    </mxGeometry>
                </mxCell>
                <mxCell id="iLJFpo5nZADd873f5mlO-3" value="5XX" style="rounded=0;orthogonalLoop=1;jettySize=auto;html=1;exitX=1;exitY=0.5;exitDx=0;exitDy=0;entryX=0;entryY=1;entryDx=0;entryDy=0;" parent="1" source="5eSl7V-lfJAm6dB7IAey-65" target="5eSl7V-lfJAm6dB7IAey-67" edge="1">
                    <mxGeometry relative="1" as="geometry"/>
                </mxCell>
                <mxCell id="iLJFpo5nZADd873f5mlO-24" value="&amp;nbsp;400&amp;nbsp;" style="rounded=0;orthogonalLoop=1;jettySize=auto;html=1;exitX=1;exitY=0.5;exitDx=0;exitDy=0;entryX=0;entryY=0;entryDx=0;entryDy=0;" parent="1" source="5eSl7V-lfJAm6dB7IAey-65" target="iLJFpo5nZADd873f5mlO-4" edge="1">
                    <mxGeometry relative="1" as="geometry"/>
                </mxCell>
                <mxCell id="iLJFpo5nZADd873f5mlO-30" style="edgeStyle=none;rounded=0;orthogonalLoop=1;jettySize=auto;html=1;exitX=0.5;exitY=1;exitDx=0;exitDy=0;entryX=0.062;entryY=0.15;entryDx=0;entryDy=0;entryPerimeter=0;" parent="1" source="5eSl7V-lfJAm6dB7IAey-65" target="iLJFpo5nZADd873f5mlO-17" edge="1">
                    <mxGeometry relative="1" as="geometry"/>
                </mxCell>
                <mxCell id="iLJFpo5nZADd873f5mlO-32" value="&lt;span style=&quot;background-color: rgb(248 , 249 , 250)&quot;&gt;&lt;font style=&quot;font-size: 11px&quot;&gt;403 / 401&lt;/font&gt;&lt;/span&gt;" style="text;html=1;align=center;verticalAlign=middle;resizable=0;points=[];labelBackgroundColor=#ffffff;" parent="iLJFpo5nZADd873f5mlO-30" vertex="1" connectable="0">
                    <mxGeometry x="0.2097" y="1" relative="1" as="geometry">
                        <mxPoint as="offset"/>
                    </mxGeometry>
                </mxCell>
                <mxCell id="5eSl7V-lfJAm6dB7IAey-65" value="&lt;font color=&quot;#000000&quot;&gt;REQUESTED&lt;/font&gt;" style="ellipse;whiteSpace=wrap;html=1;strokeColor=#000000;fontSize=11;fontColor=#0000FF;" parent="1" vertex="1">
                    <mxGeometry x="232" y="210" width="84" height="40" as="geometry"/>
                </mxCell>
                <mxCell id="iLJFpo5nZADd873f5mlO-35" style="rounded=0;orthogonalLoop=1;jettySize=auto;html=1;exitX=1;exitY=0.5;exitDx=0;exitDy=0;entryX=0;entryY=0.5;entryDx=0;entryDy=0;" parent="1" source="5eSl7V-lfJAm6dB7IAey-66" target="iLJFpo5nZADd873f5mlO-14" edge="1">
                    <mxGeometry relative="1" as="geometry"/>
                </mxCell>
                <mxCell id="iLJFpo5nZADd873f5mlO-36" value="&lt;font style=&quot;font-size: 11px&quot;&gt;logout&lt;/font&gt;" style="text;html=1;align=center;verticalAlign=middle;resizable=0;points=[];labelBackgroundColor=#ffffff;" parent="iLJFpo5nZADd873f5mlO-35" vertex="1" connectable="0">
                    <mxGeometry x="-0.0244" y="-2" relative="1" as="geometry">
                        <mxPoint as="offset"/>
                    </mxGeometry>
                </mxCell>
                <mxCell id="92" style="edgeStyle=orthogonalEdgeStyle;rounded=0;orthogonalLoop=1;jettySize=auto;html=1;exitX=0;exitY=1;exitDx=0;exitDy=0;entryX=0.784;entryY=0.083;entryDx=0;entryDy=0;entryPerimeter=0;fontSize=16;" parent="1" source="5eSl7V-lfJAm6dB7IAey-66" target="5eSl7V-lfJAm6dB7IAey-65" edge="1">
                    <mxGeometry relative="1" as="geometry"/>
                </mxCell>
                <mxCell id="93" value="&lt;span style=&quot;font-size: 11px&quot;&gt;validateToken&lt;/span&gt;" style="edgeLabel;html=1;align=center;verticalAlign=middle;resizable=0;points=[];fontSize=16;" parent="92" vertex="1" connectable="0">
                    <mxGeometry x="-0.3055" y="2" relative="1" as="geometry">
                        <mxPoint as="offset"/>
                    </mxGeometry>
                </mxCell>
                <mxCell id="5eSl7V-lfJAm6dB7IAey-66" value="&lt;font color=&quot;#000000&quot;&gt;RECEIVED&lt;/font&gt;" style="ellipse;whiteSpace=wrap;html=1;strokeColor=#000000;fontSize=11;fontColor=#0000FF;" parent="1" vertex="1">
                    <mxGeometry x="419" y="90" width="78" height="40" as="geometry"/>
                </mxCell>
                <mxCell id="iLJFpo5nZADd873f5mlO-22" style="rounded=0;orthogonalLoop=1;jettySize=auto;html=1;exitX=0;exitY=0.5;exitDx=0;exitDy=0;entryX=1;entryY=0;entryDx=0;entryDy=0;" parent="1" source="5eSl7V-lfJAm6dB7IAey-67" target="5eSl7V-lfJAm6dB7IAey-65" edge="1">
                    <mxGeometry relative="1" as="geometry">
                        <mxPoint x="310" y="230" as="targetPoint"/>
                    </mxGeometry>
                </mxCell>
                <mxCell id="iLJFpo5nZADd873f5mlO-23" value="&lt;font style=&quot;font-size: 11px&quot;&gt;validateToken&lt;/font&gt;" style="text;html=1;align=center;verticalAlign=middle;resizable=0;points=[];labelBackgroundColor=#ffffff;" parent="iLJFpo5nZADd873f5mlO-22" vertex="1" connectable="0">
                    <mxGeometry x="-0.1927" relative="1" as="geometry">
                        <mxPoint x="1.7300000000000004" y="-8.639999999999999" as="offset"/>
                    </mxGeometry>
                </mxCell>
                <mxCell id="5eSl7V-lfJAm6dB7IAey-67" value="&lt;font color=&quot;#000000&quot;&gt;ERROR&lt;/font&gt;" style="ellipse;whiteSpace=wrap;html=1;strokeColor=#000000;fontSize=11;fontColor=#0000FF;" parent="1" vertex="1">
                    <mxGeometry x="421.5" y="150" width="60" height="40" as="geometry"/>
                </mxCell>
                <mxCell id="5eSl7V-lfJAm6dB7IAey-68" value="&lt;font color=&quot;#000000&quot;&gt;doGetTokenFromStorage&lt;br&gt;(on init)&lt;br&gt;&lt;/font&gt;" style="endArrow=classic;html=1;strokeColor=#000000;fontSize=11;fontColor=#0000FF;exitX=0.5;exitY=1;exitDx=0;exitDy=0;entryX=0.5;entryY=0;entryDx=0;entryDy=0;" parent="1" source="5eSl7V-lfJAm6dB7IAey-63" edge="1">
                    <mxGeometry width="50" height="50" relative="1" as="geometry">
                        <mxPoint x="167" y="240" as="sourcePoint"/>
                        <mxPoint x="107" y="270" as="targetPoint"/>
                    </mxGeometry>
                </mxCell>
                <mxCell id="iLJFpo5nZADd873f5mlO-25" style="edgeStyle=none;rounded=0;orthogonalLoop=1;jettySize=auto;html=1;exitX=0.046;exitY=0.675;exitDx=0;exitDy=0;entryX=1;entryY=1;entryDx=0;entryDy=0;exitPerimeter=0;" parent="1" source="iLJFpo5nZADd873f5mlO-4" target="5eSl7V-lfJAm6dB7IAey-65" edge="1">
                    <mxGeometry relative="1" as="geometry"/>
                </mxCell>
                <mxCell id="iLJFpo5nZADd873f5mlO-26" value="&lt;font style=&quot;font-size: 11px&quot;&gt;&amp;nbsp;validateToken&amp;nbsp;&lt;/font&gt;" style="text;html=1;align=center;verticalAlign=middle;resizable=0;points=[];labelBackgroundColor=#ffffff;" parent="iLJFpo5nZADd873f5mlO-25" vertex="1" connectable="0">
                    <mxGeometry x="-0.2734" y="-3" relative="1" as="geometry">
                        <mxPoint x="-10.64" y="0.71" as="offset"/>
                    </mxGeometry>
                </mxCell>
                <mxCell id="iLJFpo5nZADd873f5mlO-4" value="&lt;font color=&quot;#000000&quot;&gt;REJECTED&lt;/font&gt;" style="ellipse;whiteSpace=wrap;html=1;strokeColor=#000000;fontSize=11;fontColor=#0000FF;" parent="1" vertex="1">
                    <mxGeometry x="419" y="220" width="65" height="40" as="geometry"/>
                </mxCell>
                <mxCell id="iLJFpo5nZADd873f5mlO-39" style="rounded=0;orthogonalLoop=1;jettySize=auto;html=1;" parent="1" source="iLJFpo5nZADd873f5mlO-14" target="iLJFpo5nZADd873f5mlO-38" edge="1">
                    <mxGeometry relative="1" as="geometry"/>
                </mxCell>
                <mxCell id="iLJFpo5nZADd873f5mlO-41" value="&lt;font style=&quot;font-size: 11px&quot;&gt;204&lt;/font&gt;" style="text;html=1;align=center;verticalAlign=middle;resizable=0;points=[];labelBackgroundColor=#ffffff;" parent="iLJFpo5nZADd873f5mlO-39" vertex="1" connectable="0">
                    <mxGeometry x="-0.1508" y="-4" relative="1" as="geometry">
                        <mxPoint as="offset"/>
                    </mxGeometry>
                </mxCell>
                <mxCell id="iLJFpo5nZADd873f5mlO-40" style="edgeStyle=none;rounded=0;orthogonalLoop=1;jettySize=auto;html=1;exitX=1;exitY=0.5;exitDx=0;exitDy=0;entryX=0;entryY=0.5;entryDx=0;entryDy=0;" parent="1" source="iLJFpo5nZADd873f5mlO-14" target="iLJFpo5nZADd873f5mlO-37" edge="1">
                    <mxGeometry relative="1" as="geometry"/>
                </mxCell>
                <mxCell id="iLJFpo5nZADd873f5mlO-42" value="&lt;font style=&quot;font-size: 11px&quot;&gt;&amp;nbsp;~ 204&amp;nbsp;&lt;/font&gt;" style="text;html=1;align=center;verticalAlign=middle;resizable=0;points=[];labelBackgroundColor=#ffffff;" parent="iLJFpo5nZADd873f5mlO-40" vertex="1" connectable="0">
                    <mxGeometry x="-0.0526" y="1" relative="1" as="geometry">
                        <mxPoint as="offset"/>
                    </mxGeometry>
                </mxCell>
                <mxCell id="iLJFpo5nZADd873f5mlO-14" value="&lt;font color=&quot;#000000&quot;&gt;REMOVE REQUESTED&lt;/font&gt;" style="ellipse;whiteSpace=wrap;html=1;strokeColor=#000000;fontSize=11;fontColor=#0000FF;" parent="1" vertex="1">
                    <mxGeometry x="557" y="120" width="90" height="50" as="geometry"/>
                </mxCell>
                <mxCell id="iLJFpo5nZADd873f5mlO-33" style="edgeStyle=orthogonalEdgeStyle;rounded=0;orthogonalLoop=1;jettySize=auto;html=1;exitX=0;exitY=0.5;exitDx=0;exitDy=0;entryX=0.5;entryY=1;entryDx=0;entryDy=0;" parent="1" source="iLJFpo5nZADd873f5mlO-17" target="5eSl7V-lfJAm6dB7IAey-65" edge="1">
                    <mxGeometry relative="1" as="geometry"/>
                </mxCell>
                <mxCell id="iLJFpo5nZADd873f5mlO-34" value="&lt;font style=&quot;font-size: 11px&quot;&gt;&amp;nbsp;validateToken&amp;nbsp;&lt;/font&gt;" style="text;html=1;align=center;verticalAlign=middle;resizable=0;points=[];labelBackgroundColor=#ffffff;" parent="iLJFpo5nZADd873f5mlO-33" vertex="1" connectable="0">
                    <mxGeometry x="-0.2976" y="1" relative="1" as="geometry">
                        <mxPoint as="offset"/>
                    </mxGeometry>
                </mxCell>
                <mxCell id="iLJFpo5nZADd873f5mlO-17" value="&lt;font color=&quot;#000000&quot;&gt;EXPIRED&lt;/font&gt;" style="ellipse;whiteSpace=wrap;html=1;strokeColor=#000000;fontSize=11;fontColor=#0000FF;" parent="1" vertex="1">
                    <mxGeometry x="419" y="290" width="65" height="40" as="geometry"/>
                </mxCell>
                <mxCell id="iLJFpo5nZADd873f5mlO-37" value="&lt;font color=&quot;#000000&quot;&gt;REMOVE ERROR&lt;/font&gt;" style="ellipse;whiteSpace=wrap;html=1;strokeColor=#000000;fontSize=11;fontColor=#0000FF;" parent="1" vertex="1">
                    <mxGeometry x="710" y="120" width="60" height="50" as="geometry"/>
                </mxCell>
                <mxCell id="iLJFpo5nZADd873f5mlO-38" value="&lt;font color=&quot;#000000&quot;&gt;REMOVED REMOTELY&lt;/font&gt;" style="ellipse;whiteSpace=wrap;html=1;strokeColor=#000000;fontSize=11;fontColor=#0000FF;" parent="1" vertex="1">
                    <mxGeometry x="702" y="180" width="68" height="50" as="geometry"/>
                </mxCell>
                <mxCell id="iLJFpo5nZADd873f5mlO-44" value="&lt;font color=&quot;#0000ff&quot;&gt;trigger&lt;/font&gt;" style="rounded=0;orthogonalLoop=1;jettySize=auto;html=1;exitX=0.5;exitY=0;exitDx=0;exitDy=0;fontSize=11;strokeColor=#0000FF;" parent="1" source="5eSl7V-lfJAm6dB7IAey-66" target="iLJFpo5nZADd873f5mlO-45" edge="1">
                    <mxGeometry x="0.1948" relative="1" as="geometry">
                        <mxPoint x="483.9971644662614" y="69.99786437627621" as="sourcePoint"/>
                        <mxPoint as="offset"/>
                    </mxGeometry>
                </mxCell>
                <mxCell id="iLJFpo5nZADd873f5mlO-45" value="&lt;span style=&quot;white-space: nowrap ; background-color: rgb(255 , 255 , 255)&quot;&gt;&lt;font color=&quot;#0000ff&quot;&gt;openWebsocketConnection&lt;/font&gt;&lt;/span&gt;" style="rounded=0;whiteSpace=wrap;html=1;fontSize=11;strokeColor=#0000FF;" parent="1" vertex="1">
                    <mxGeometry x="612" y="80" width="148" height="20" as="geometry"/>
                </mxCell>
                <mxCell id="iLJFpo5nZADd873f5mlO-47" value="&lt;font color=&quot;#0000ff&quot;&gt;trigger&lt;/font&gt;" style="rounded=0;orthogonalLoop=1;jettySize=auto;html=1;fontSize=11;strokeColor=#0000FF;entryX=0;entryY=0.5;entryDx=0;entryDy=0;exitX=1;exitY=0.5;exitDx=0;exitDy=0;" parent="1" source="iLJFpo5nZADd873f5mlO-4" target="iLJFpo5nZADd873f5mlO-48" edge="1">
                    <mxGeometry x="0.1948" relative="1" as="geometry">
                        <mxPoint x="490" y="240" as="sourcePoint"/>
                        <mxPoint as="offset"/>
                    </mxGeometry>
                </mxCell>
                <mxCell id="iLJFpo5nZADd873f5mlO-48" value="&lt;span style=&quot;white-space: nowrap ; background-color: rgb(255 , 255 , 255)&quot;&gt;&lt;font color=&quot;#0000ff&quot;&gt;closeWebsocketConnection&lt;/font&gt;&lt;/span&gt;" style="rounded=0;whiteSpace=wrap;html=1;fontSize=11;strokeColor=#0000FF;" parent="1" vertex="1">
                    <mxGeometry x="578" y="250" width="148" height="20" as="geometry"/>
                </mxCell>
                <mxCell id="iLJFpo5nZADd873f5mlO-50" value="&lt;font color=&quot;#0000ff&quot;&gt;trigger&lt;/font&gt;" style="rounded=0;orthogonalLoop=1;jettySize=auto;html=1;fontSize=11;strokeColor=#0000FF;entryX=0.25;entryY=0;entryDx=0;entryDy=0;exitX=1;exitY=0.5;exitDx=0;exitDy=0;" parent="1" source="5eSl7V-lfJAm6dB7IAey-67" target="iLJFpo5nZADd873f5mlO-48" edge="1">
                    <mxGeometry x="0.1948" relative="1" as="geometry">
                        <mxPoint x="500" y="250" as="sourcePoint"/>
                        <mxPoint as="offset"/>
                        <mxPoint x="588" y="270" as="targetPoint"/>
                    </mxGeometry>
                </mxCell>
                <mxCell id="iLJFpo5nZADd873f5mlO-51" value="&lt;font color=&quot;#0000ff&quot;&gt;trigger&lt;/font&gt;" style="rounded=0;orthogonalLoop=1;jettySize=auto;html=1;fontSize=11;strokeColor=#0000FF;entryX=0.25;entryY=1;entryDx=0;entryDy=0;exitX=1;exitY=0.5;exitDx=0;exitDy=0;" parent="1" source="iLJFpo5nZADd873f5mlO-17" target="iLJFpo5nZADd873f5mlO-48" edge="1">
                    <mxGeometry x="0.1948" relative="1" as="geometry">
                        <mxPoint x="510" y="260" as="sourcePoint"/>
                        <mxPoint as="offset"/>
                        <mxPoint x="598" y="280" as="targetPoint"/>
                    </mxGeometry>
                </mxCell>
                <mxCell id="40" value="&lt;font style=&quot;font-size: 14px&quot;&gt;Token Swap Status&lt;/font&gt;" style="text;html=1;align=center;verticalAlign=middle;resizable=0;points=[];autosize=1;fontSize=11;fontStyle=1" parent="1" vertex="1">
                    <mxGeometry x="381.5" y="420" width="140" height="20" as="geometry"/>
                </mxCell>
                <mxCell id="46" value="200" style="rounded=0;orthogonalLoop=1;jettySize=auto;html=1;entryX=0;entryY=1;entryDx=0;entryDy=0;elbow=vertical;exitX=0;exitY=0;exitDx=0;exitDy=0;" parent="1" source="51" target="56" edge="1">
                    <mxGeometry x="-0.3899" y="1" relative="1" as="geometry">
                        <mxPoint x="301" y="630" as="targetPoint"/>
                        <Array as="points"/>
                        <mxPoint as="offset"/>
                    </mxGeometry>
                </mxCell>
                <mxCell id="47" value="5XX" style="rounded=0;orthogonalLoop=1;jettySize=auto;html=1;exitX=1;exitY=0.5;exitDx=0;exitDy=0;entryX=0;entryY=1;entryDx=0;entryDy=0;" parent="1" source="51" target="59" edge="1">
                    <mxGeometry relative="1" as="geometry"/>
                </mxCell>
                <mxCell id="48" value="&amp;nbsp;400&amp;nbsp;" style="rounded=0;orthogonalLoop=1;jettySize=auto;html=1;exitX=1;exitY=0.5;exitDx=0;exitDy=0;entryX=0;entryY=0;entryDx=0;entryDy=0;" parent="1" source="51" target="63" edge="1">
                    <mxGeometry relative="1" as="geometry"/>
                </mxCell>
                <mxCell id="51" value="&lt;font color=&quot;#000000&quot;&gt;SWAP REQUESTED&lt;/font&gt;" style="ellipse;whiteSpace=wrap;html=1;strokeColor=#000000;fontSize=11;fontColor=#0000FF;" parent="1" vertex="1">
                    <mxGeometry x="330" y="735" width="90" height="40" as="geometry"/>
                </mxCell>
                <mxCell id="89" style="edgeStyle=orthogonalEdgeStyle;rounded=0;orthogonalLoop=1;jettySize=auto;html=1;exitX=0.5;exitY=1;exitDx=0;exitDy=0;fontSize=16;entryX=0.5;entryY=0;entryDx=0;entryDy=0;" parent="1" source="56" target="51" edge="1">
                    <mxGeometry relative="1" as="geometry">
                        <mxPoint x="380" y="710" as="targetPoint"/>
                        <Array as="points">
                            <mxPoint x="369" y="560"/>
                            <mxPoint x="375" y="560"/>
                        </Array>
                    </mxGeometry>
                </mxCell>
                <mxCell id="90" value="&lt;span style=&quot;font-size: 11px&quot;&gt;requestSwapToken&lt;/span&gt;" style="edgeLabel;html=1;align=center;verticalAlign=middle;resizable=0;points=[];fontSize=16;" parent="89" vertex="1" connectable="0">
                    <mxGeometry x="-0.2218" y="-2" relative="1" as="geometry">
                        <mxPoint x="27" y="-13.67" as="offset"/>
                    </mxGeometry>
                </mxCell>
                <mxCell id="101" style="edgeStyle=orthogonalEdgeStyle;rounded=0;orthogonalLoop=1;jettySize=auto;html=1;exitX=0;exitY=0.5;exitDx=0;exitDy=0;entryX=1;entryY=0.5;entryDx=0;entryDy=0;fontSize=16;" parent="1" source="56" target="100" edge="1">
                    <mxGeometry relative="1" as="geometry"/>
                </mxCell>
                <mxCell id="102" value="&lt;span style=&quot;font-size: 11px&quot;&gt;requireSwapToken&lt;/span&gt;" style="edgeLabel;html=1;align=center;verticalAlign=middle;resizable=0;points=[];fontSize=16;" parent="101" vertex="1" connectable="0">
                    <mxGeometry x="-0.0714" y="-2" relative="1" as="geometry">
                        <mxPoint as="offset"/>
                    </mxGeometry>
                </mxCell>
                <mxCell id="56" value="&lt;font color=&quot;#000000&quot;&gt;SWAP RECEIVED&lt;/font&gt;" style="ellipse;whiteSpace=wrap;html=1;strokeColor=#000000;fontSize=11;fontColor=#0000FF;" parent="1" vertex="1">
                    <mxGeometry x="330" y="540" width="78" height="40" as="geometry"/>
                </mxCell>
                <mxCell id="57" style="rounded=0;orthogonalLoop=1;jettySize=auto;html=1;exitX=0;exitY=0.5;exitDx=0;exitDy=0;entryX=1;entryY=0;entryDx=0;entryDy=0;" parent="1" source="59" target="51" edge="1">
                    <mxGeometry relative="1" as="geometry">
                        <mxPoint x="408" y="755" as="targetPoint"/>
                    </mxGeometry>
                </mxCell>
                <mxCell id="58" value="&lt;span style=&quot;font-size: 11px&quot;&gt;requestSwapToken&lt;/span&gt;" style="text;html=1;align=center;verticalAlign=middle;resizable=0;points=[];labelBackgroundColor=#ffffff;" parent="57" vertex="1" connectable="0">
                    <mxGeometry x="-0.1927" relative="1" as="geometry">
                        <mxPoint x="1.7300000000000004" y="-8.639999999999999" as="offset"/>
                    </mxGeometry>
                </mxCell>
                <mxCell id="59" value="&lt;font color=&quot;#000000&quot;&gt;SWAP ERROR&lt;/font&gt;" style="ellipse;whiteSpace=wrap;html=1;strokeColor=#000000;fontSize=11;fontColor=#0000FF;" parent="1" vertex="1">
                    <mxGeometry x="549" y="670" width="71" height="40" as="geometry"/>
                </mxCell>
                <mxCell id="61" style="edgeStyle=none;rounded=0;orthogonalLoop=1;jettySize=auto;html=1;exitX=0.046;exitY=0.675;exitDx=0;exitDy=0;entryX=1;entryY=1;entryDx=0;entryDy=0;exitPerimeter=0;" parent="1" source="63" target="51" edge="1">
                    <mxGeometry relative="1" as="geometry"/>
                </mxCell>
                <mxCell id="62" value="&lt;span style=&quot;font-size: 11px&quot;&gt;requestSwapToken&lt;/span&gt;" style="text;html=1;align=center;verticalAlign=middle;resizable=0;points=[];labelBackgroundColor=#ffffff;" parent="61" vertex="1" connectable="0">
                    <mxGeometry x="-0.2734" y="-3" relative="1" as="geometry">
                        <mxPoint x="-10.64" y="0.71" as="offset"/>
                    </mxGeometry>
                </mxCell>
                <mxCell id="63" value="&lt;font color=&quot;#000000&quot;&gt;SWAP REJECTED&lt;/font&gt;" style="ellipse;whiteSpace=wrap;html=1;strokeColor=#000000;fontSize=11;fontColor=#0000FF;" parent="1" vertex="1">
                    <mxGeometry x="559" y="745" width="81" height="40" as="geometry"/>
                </mxCell>
                <mxCell id="74" value="&lt;font color=&quot;#0000ff&quot;&gt;trigger&lt;/font&gt;" style="rounded=0;orthogonalLoop=1;jettySize=auto;html=1;exitX=0.5;exitY=0;exitDx=0;exitDy=0;fontSize=11;strokeColor=#0000FF;" parent="1" source="56" target="75" edge="1">
                    <mxGeometry x="0.1948" relative="1" as="geometry">
                        <mxPoint x="394.9971644662614" y="519.9978643762762" as="sourcePoint"/>
                        <mxPoint as="offset"/>
                    </mxGeometry>
                </mxCell>
                <mxCell id="75" value="&lt;span style=&quot;white-space: nowrap ; background-color: rgb(255 , 255 , 255)&quot;&gt;&lt;font color=&quot;#0000ff&quot;&gt;doReceiveToken&lt;/font&gt;&lt;/span&gt;" style="rounded=0;whiteSpace=wrap;html=1;fontSize=11;strokeColor=#0000FF;" parent="1" vertex="1">
                    <mxGeometry x="469" y="530" width="148" height="20" as="geometry"/>
                </mxCell>
                <mxCell id="80" value="&lt;font style=&quot;font-size: 14px&quot;&gt;&lt;span&gt;&lt;b&gt;Token Status&lt;/b&gt;&lt;/span&gt;&lt;br&gt;&lt;/font&gt;" style="text;html=1;align=center;verticalAlign=middle;resizable=0;points=[];autosize=1;fontSize=11;fontStyle=0" parent="1" vertex="1">
                    <mxGeometry x="390" y="50" width="100" height="20" as="geometry"/>
                </mxCell>
                <mxCell id="88" value="Initialization" style="rounded=0;orthogonalLoop=1;jettySize=auto;html=1;entryX=0.5;entryY=0;entryDx=0;entryDy=0;" parent="1" target="5eSl7V-lfJAm6dB7IAey-63" edge="1">
                    <mxGeometry x="-1" y="-10" relative="1" as="geometry">
                        <mxPoint x="107" y="120" as="sourcePoint"/>
                        <mxPoint x="167.42007060346123" y="87.09836611033884" as="targetPoint"/>
                        <mxPoint x="10" y="-10" as="offset"/>
                    </mxGeometry>
                </mxCell>
                <mxCell id="91" value="Initialization" style="rounded=0;orthogonalLoop=1;jettySize=auto;html=1;entryX=0.5;entryY=0;entryDx=0;entryDy=0;" parent="1" target="56" edge="1">
                    <mxGeometry x="-1" y="-10" relative="1" as="geometry">
                        <mxPoint x="369" y="510" as="sourcePoint"/>
                        <mxPoint x="172" y="480" as="targetPoint"/>
                        <mxPoint x="10" y="-10" as="offset"/>
                    </mxGeometry>
                </mxCell>
                <mxCell id="94" value="&lt;font color=&quot;#0000ff&quot;&gt;trigger&lt;/font&gt;" style="rounded=0;orthogonalLoop=1;jettySize=auto;html=1;exitX=0.5;exitY=0;exitDx=0;exitDy=0;fontSize=11;strokeColor=#0000FF;" parent="1" source="75" target="95" edge="1">
                    <mxGeometry relative="1" as="geometry">
                        <mxPoint x="440" y="490" as="sourcePoint"/>
                        <mxPoint as="offset"/>
                    </mxGeometry>
                </mxCell>
                <mxCell id="108" style="edgeStyle=orthogonalEdgeStyle;rounded=0;orthogonalLoop=1;jettySize=auto;html=1;exitX=1;exitY=0.5;exitDx=0;exitDy=0;entryX=0;entryY=0.5;entryDx=0;entryDy=0;strokeColor=#0000FF;" edge="1" parent="1" source="95" target="106">
                    <mxGeometry relative="1" as="geometry"/>
                </mxCell>
                <mxCell id="95" value="&lt;span style=&quot;white-space: nowrap ; background-color: rgb(255 , 255 , 255)&quot;&gt;&lt;font color=&quot;#0000ff&quot;&gt;closeWebsocketConnection&lt;/font&gt;&lt;/span&gt;" style="rounded=0;whiteSpace=wrap;html=1;fontSize=11;strokeColor=#0000FF;" parent="1" vertex="1">
                    <mxGeometry x="469" y="470" width="148" height="20" as="geometry"/>
                </mxCell>
                <mxCell id="97" value="&lt;span style=&quot;color: rgb(0 , 0 , 255) ; font-family: &amp;#34;helvetica&amp;#34; ; font-size: 11px ; font-style: normal ; font-weight: 400 ; letter-spacing: normal ; text-align: center ; text-indent: 0px ; text-transform: none ; word-spacing: 0px ; background-color: rgb(255 , 255 , 255) ; float: none ; display: inline&quot;&gt;- Changes the old token and user by the new ones&lt;br&gt;- The connection should have been closed by the backend by now, so it needs to:&lt;br&gt;- Trigger closeWebsocketconnection and then&lt;br&gt;openWebsocketconnection&lt;br&gt;&lt;/span&gt;" style="text;whiteSpace=wrap;html=1;fontSize=16;" parent="1" vertex="1">
                    <mxGeometry x="469" y="550" width="310" height="110" as="geometry"/>
                </mxCell>
                <mxCell id="103" style="edgeStyle=orthogonalEdgeStyle;rounded=0;orthogonalLoop=1;jettySize=auto;html=1;exitX=0.5;exitY=0;exitDx=0;exitDy=0;entryX=0;entryY=0;entryDx=0;entryDy=0;fontSize=16;" parent="1" source="100" target="56" edge="1">
                    <mxGeometry relative="1" as="geometry">
                        <Array as="points">
                            <mxPoint x="159" y="520"/>
                            <mxPoint x="342" y="520"/>
                        </Array>
                    </mxGeometry>
                </mxCell>
                <mxCell id="105" value="&lt;span style=&quot;font-size: 11px&quot;&gt;cancelSwapToken&lt;/span&gt;" style="edgeLabel;html=1;align=center;verticalAlign=middle;resizable=0;points=[];fontSize=16;" parent="103" vertex="1" connectable="0">
                    <mxGeometry x="-0.0835" y="-1" relative="1" as="geometry">
                        <mxPoint as="offset"/>
                    </mxGeometry>
                </mxCell>
                <mxCell id="100" value="&lt;font color=&quot;#000000&quot;&gt;SWAP REQUIRED&lt;/font&gt;" style="ellipse;whiteSpace=wrap;html=1;strokeColor=#000000;fontSize=11;fontColor=#0000FF;" parent="1" vertex="1">
                    <mxGeometry x="120" y="540" width="78" height="40" as="geometry"/>
                </mxCell>
                <mxCell id="106" value="&lt;span style=&quot;white-space: nowrap ; background-color: rgb(255 , 255 , 255)&quot;&gt;&lt;font color=&quot;#0000ff&quot;&gt;openWebsocketConnection&lt;/font&gt;&lt;/span&gt;" style="rounded=0;whiteSpace=wrap;html=1;fontSize=11;strokeColor=#0000FF;" vertex="1" parent="1">
                    <mxGeometry x="647" y="470" width="148" height="20" as="geometry"/>
                </mxCell>
            </root>
        </mxGraphModel>
    </diagram>
</mxfile>